<svg xmlns="http://www.w3.org/2000/svg" width="17" height="17.009"><path d="M16.807 14.3l-5.808-5.83 5.822-5.755a.615.615 0 000-.868L15.165.182a.609.609 0 00-.434-.177.628.628 0 00-.434.177l-5.8 5.738-5.8-5.733A.609.609 0 002.263.01a.628.628 0 00-.434.177L.178 1.852a.615.615 0 000 .868L6 8.475.2 14.301a.613.613 0 00-.182.434.6.6 0 00.182.434l1.65 1.658a.61.61 0 00.434.182.6.6 0 00.434-.182L8.5 11.019l5.786 5.8a.61.61 0 00.434.182.6.6 0 00.434-.182l1.656-1.665a.613.613 0 00.182-.434.635.635 0 00-.185-.42z" fill="#6B00C7"/></svg>