<svg xmlns="http://www.w3.org/2000/svg" width="32.646" height="21.065"><path d="M31.374 5.266C28.632 1.975 23.036 0 16.344 0 9.761 0 4.056 1.975 1.313 5.266A5.083 5.083 0 00.106 9.655a4.309 4.309 0 002.191 3.072 4.754 4.754 0 002.085.439 3.732 3.732 0 001.1-.11 11.653 11.653 0 00-.439 2.085 5.4 5.4 0 001.1 4.5 4.6 4.6 0 003.511 1.426h13.163a4.4 4.4 0 003.511-1.536 6.271 6.271 0 001.207-4.388 14.108 14.108 0 00-.439-2.085 4.114 4.114 0 001.207.11 4.754 4.754 0 002.085-.439 4.309 4.309 0 002.194-3.072 5.344 5.344 0 00-1.208-4.391zm-6.253 13.166a2.834 2.834 0 01-2.3.987H9.871a3.344 3.344 0 01-2.523-.878 4.464 4.464 0 01-.658-3.182 11.967 11.967 0 014.059-7.46 9.45 9.45 0 015.705-1.975A7.745 7.745 0 0121.829 7.9a12.9 12.9 0 014.059 7.46 4.076 4.076 0 01-.767 3.072zm5.815-9.106a2.723 2.723 0 01-1.427 1.974 4.07 4.07 0 01-3.291-.11 12.545 12.545 0 00-3.4-4.5 9.747 9.747 0 00-6.473-2.3 11.221 11.221 0 00-6.692 2.3 13.157 13.157 0 00-3.512 4.61 3.69 3.69 0 01-3.072 0 3.04 3.04 0 01-1.426-1.975 3.432 3.432 0 01.878-2.962C5.043 3.4 10.197 1.646 16.344 1.646s11.3 1.755 13.714 4.718a3.342 3.342 0 01.877 2.961zM16.344 7.68c-2.414 0-4.5 1.755-4.5 3.84s1.975 3.84 4.5 3.84c2.414 0 4.5-1.755 4.5-3.84s-2.087-3.84-4.5-3.84zm0 6.034c-1.536 0-2.853-.987-2.853-2.194s1.207-2.194 2.853-2.194c1.536 0 2.853.987 2.853 2.194s-1.317 2.194-2.853 2.194z" fill="#fff"/></svg>