<svg xmlns="http://www.w3.org/2000/svg" width="56" height="94"><g data-name="Сгруппировать 1"><path data-name="Контур 7" d="M19 30A15 15 0 017.727 5.1a.5.5 0 01.752.661A13.964 13.964 0 1011.9 2.933a.5.5 0 01-.507-.862A15 15 0 1119 30z" fill="#ffffff"/></g><g data-name="Сгруппировать 2"><path data-name="Контур 8" d="M19 27.5A12.5 12.5 0 1131.5 15 12.514 12.514 0 0119 27.5zm0-24A11.5 11.5 0 1030.5 15 11.513 11.513 0 0019 3.5z" fill="#ffffff"/></g><g data-name="Сгруппировать 21"><g data-name="Сгруппировать 5"><g data-name="Сгруппировать 3"><path data-name="Контур 9" d="M23.75 7.27a.493.493 0 01-.5-.5.472.472 0 01.149-.35.5.5 0 01.7 0 .5.5 0 01-.349.85z" fill="#ffffff"/></g><g data-name="Сгруппировать 4"><path data-name="Контур 10" d="M14.25 23.729a.517.517 0 01-.351-.149.5.5 0 01-.149-.351.538.538 0 01.14-.359.532.532 0 01.71 0 .5.5 0 01.15.359.538.538 0 01-.141.351.548.548 0 01-.359.149z" fill="#ffffff"/></g></g><g data-name="Сгруппировать 8"><g data-name="Сгруппировать 6"><path data-name="Контур 11" d="M27.229 10.75a.5.5 0 01-.35-.141.5.5 0 11.7-.71.513.513 0 01.149.351.511.511 0 01-.5.5z" fill="#ffffff"/></g><g data-name="Сгруппировать 7"><path data-name="Контур 12" d="M10.77 20.25a.514.514 0 01-.35-.141.535.535 0 01-.15-.359.5.5 0 01.861-.351.509.509 0 010 .7.5.5 0 01-.361.151z" fill="#ffffff"/></g></g><g data-name="Сгруппировать 11"><g data-name="Сгруппировать 9"><path data-name="Контур 13" d="M28.5 15.5a.5.5 0 01-.351-.851A.5.5 0 0129 15a.5.5 0 01-.141.35.5.5 0 01-.359.15z" fill="#ffffff"/></g><g data-name="Сгруппировать 10"><path data-name="Контур 14" d="M9.5 15.5a.5.5 0 01-.351-.851A.5.5 0 0110 15a.5.5 0 01-.141.35.5.5 0 01-.359.15z" fill="#ffffff"/></g></g><g data-name="Сгруппировать 14"><g data-name="Сгруппировать 12"><path data-name="Контур 15" d="M27.229 20.25a.534.534 0 01-.359-.141.541.541 0 01-.141-.359.5.5 0 01.851-.351.513.513 0 01.149.351.511.511 0 01-.5.5z" fill="#ffffff"/></g><g data-name="Сгруппировать 13"><path data-name="Контур 16" d="M10.77 10.75a.514.514 0 01-.35-.141.535.535 0 01-.15-.359.5.5 0 01.861-.351.509.509 0 010 .7.513.513 0 01-.361.151z" fill="#ffffff"/></g></g><g data-name="Сгруппировать 17"><g data-name="Сгруппировать 15"><path data-name="Контур 17" d="M23.75 23.729a.5.5 0 01-.351-.14.524.524 0 01-.149-.36.538.538 0 01.14-.359.522.522 0 01.71 0 .5.5 0 01.15.359.538.538 0 01-.141.351.5.5 0 01-.359.149z" fill="#ffffff"/></g><g data-name="Сгруппировать 16"><path data-name="Контур 18" d="M14.25 7.27a.5.5 0 01-.351-.85.511.511 0 01.7-.01.5.5 0 01.15.359.47.47 0 01-.149.351.485.485 0 01-.35.15z" fill="#ffffff"/></g></g><g data-name="Сгруппировать 20"><g data-name="Сгруппировать 18"><path data-name="Контур 19" d="M19 25a.518.518 0 01-.351-.141.524.524 0 01-.149-.359.5.5 0 01.85-.351A.5.5 0 0119 25z" fill="#ffffff"/></g><g data-name="Сгруппировать 19"><path data-name="Контур 20" d="M19 6a.518.518 0 01-.351-.141.507.507 0 01-.149-.359.485.485 0 01.14-.351.506.506 0 01.71 0 .473.473 0 01.15.351.5.5 0 01-.141.35A.5.5 0 0119 6z" fill="#ffffff"/></g></g></g><g data-name="Сгруппировать 23" fill="#ffffff"><g data-name="Сгруппировать 22"><path data-name="Контур 21" d="M25.364 8.636a.5.5 0 00-.707 0l-5.413 5.413a.975.975 0 01.707.707l5.413-5.413a.5.5 0 000-.707z"/><path data-name="Контур 22" d="M18.756 14.049l-6.12-6.12a.5.5 0 00-.707.707l6.12 6.12a.975.975 0 01.707-.707z"/></g><path data-name="Контур 23" d="M19 16.5a1.5 1.5 0 111.5-1.5 1.5 1.5 0 01-1.5 1.5zm0-2a.5.5 0 10.5.5.5.5 0 00-.5-.5z"/></g><g data-name="Сгруппировать 30"><g data-name="Сгруппировать 29"><g data-name="Сгруппировать 28"><g data-name="Сгруппировать 27"><g data-name="Сгруппировать 26"><g data-name="Сгруппировать 25"><g data-name="Сгруппировать 24"><path data-name="Контур 24" d="M10.5 3.5a.5.5 0 01-.5.5.5.5 0 01-.5-.5.5.5 0 01.5-.5.5.5 0 01.5.5z" fill="#ffffff"/></g></g></g></g></g></g></g><path d="M54 52h-6.6a8 8 0 00-6.92-12h-1.27a8 8 0 00-6.66 3.56L28 50.39l-4.55-6.83A8 8 0 0016.79 40h-1.27A8 8 0 008.6 52H2a2 2 0 00-2 2v11a2 2 0 002 2h2v25a2 2 0 002 2h44a2 2 0 002-2V67h2a2 2 0 002-2V54a2 2 0 00-2-2zm-18.12-6.22A4 4 0 0139.21 44h1.27a4 4 0 014 3.67 3.91 3.91 0 01-1 3 4 4 0 01-3 1.33h-8.74zm-23.3 4.93a3.91 3.91 0 01-1-3 4 4 0 014-3.67h1.27a4 4 0 013.33 1.78L24.26 52h-8.74a4 4 0 01-2.94-1.29zM4 56h22v7H4zm4 34V67h18v23zm40 0H30V67h18zm4-27H30v-7h22z" fill="#ffffff"/><path d="M45.937 44.02a3.9 3.9 0 11-1.428 5.328 2.862 2.862 0 01-.442-1.546l-3.2-.855-.856 3.198a2.862 2.862 0 011.118 1.156 3.9 3.9 0 11-5.328-1.428 2.862 2.862 0 011.546-.442l.86-3.2-9.33-2.498-1.95-3.377 17.853 4.783a2.862 2.862 0 011.156-1.118zm.26 4.353a1.951 1.951 0 10.715-2.663 1.956 1.956 0 00-.714 2.665zm-10.133 5.85a1.951 1.951 0 10.716-2.663 1.956 1.956 0 00-.715 2.665zm4.254-9.213a.488.488 0 10-.179.667.461.461 0 00.179-.667zm1.812-13.43l1.95 3.377-2.142 7.995-2.665-.717L42.13 31.58z" fill="#44007E" fill-rule="evenodd"/><path data-name="Контур 25" d="M31.453 45.406a20.163 20.163 0 012.734-3.687l3.281 1.3-2.094 3.469s-4.53.293-3.921-1.082z" fill="#E9E9E9"/></svg>