<svg xmlns="http://www.w3.org/2000/svg" width="76" height="76"><path fill="none" d="M0 0h76v76H0z"/><path data-name="Контур 34" d="M38.162 41.556A35.954 35.954 0 0172.08 67.028a2.683 2.683 0 01.237 1.572c-.38 1.15-1.971.877-2.468-.761-3.344-10.851-11.962-20.153-23.233-22.916-9.994-2.445-21.177-.45-28.856 6.185A34.671 34.671 0 007.179 67.79s-.85 1.646-1.933.766c-1.1-.9.071-2.936.842-4.828 5.056-12.42 16.836-21.92 31.293-22.166q.391-.005.782 0zM38.1 7.178a15.853 15.853 0 0115.035 12.5 15.9 15.9 0 01-9.138 17.113 15.948 15.948 0 01-19.845-7.434c-3.572-7.293-.2-17.215 7.338-20.734a15.515 15.515 0 016.61-1.445zm-.184 2.37a13.411 13.411 0 00-12.674 10.33A13.465 13.465 0 0032.927 34.6c7.215 3.054 16.779-1.941 17.974-10.11A13.368 13.368 0 0038.337 9.553h-.421z" fill="#562580"/></svg>