<svg xmlns="http://www.w3.org/2000/svg" width="17" height="17.009" viewBox="0 0 17 17.009">
  <path id="close" d="M80.757,78.5l-5.808-5.83,5.822-5.755a.615.615,0,0,0,0-.868l-1.656-1.665a.609.609,0,0,0-.434-.177.628.628,0,0,0-.434.177l-5.8,5.738-5.8-5.733a.609.609,0,0,0-.434-.177.628.628,0,0,0-.434.177l-1.651,1.665a.615.615,0,0,0,0,.868l5.822,5.755-5.8,5.826a.613.613,0,0,0-.182.434.6.6,0,0,0,.182.434L65.8,81.027a.61.61,0,0,0,.434.182.6.6,0,0,0,.434-.182l5.782-5.808,5.786,5.8a.61.61,0,0,0,.434.182.6.6,0,0,0,.434-.182l1.656-1.665a.613.613,0,0,0,.182-.434A.635.635,0,0,0,80.757,78.5Z" transform="translate(-63.95 -64.2)" fill="#430024"/>
</svg>
