<svg xmlns="http://www.w3.org/2000/svg" width="32.646" height="21.065" viewBox="0 0 32.646 21.065">
  <path id="phone" d="M31.477,10.666C28.735,7.375,23.139,5.4,16.447,5.4h0C9.864,5.4,4.159,7.375,1.416,10.666A5.083,5.083,0,0,0,.209,15.055,4.309,4.309,0,0,0,2.4,18.127a4.754,4.754,0,0,0,2.085.439,3.732,3.732,0,0,0,1.1-.11,11.653,11.653,0,0,0-.439,2.085,5.4,5.4,0,0,0,1.1,4.5,4.6,4.6,0,0,0,3.511,1.426H22.92a4.4,4.4,0,0,0,3.511-1.536,6.271,6.271,0,0,0,1.207-4.388,14.108,14.108,0,0,0-.439-2.085,4.114,4.114,0,0,0,1.207.11,4.754,4.754,0,0,0,2.085-.439,4.309,4.309,0,0,0,2.194-3.072A5.344,5.344,0,0,0,31.477,10.666ZM25.224,23.832a2.834,2.834,0,0,1-2.3.987H9.974a3.344,3.344,0,0,1-2.523-.878,4.464,4.464,0,0,1-.658-3.182,11.967,11.967,0,0,1,4.059-7.46,9.45,9.45,0,0,1,5.705-1.975A7.745,7.745,0,0,1,21.932,13.3a12.9,12.9,0,0,1,4.059,7.46A4.076,4.076,0,0,1,25.224,23.832Zm5.815-9.106A2.723,2.723,0,0,1,29.612,16.7a4.07,4.07,0,0,1-3.291-.11,12.545,12.545,0,0,0-3.4-4.5,9.747,9.747,0,0,0-6.473-2.3,11.221,11.221,0,0,0-6.692,2.3A13.157,13.157,0,0,0,6.244,16.7a3.69,3.69,0,0,1-3.072,0,3.04,3.04,0,0,1-1.426-1.975,3.432,3.432,0,0,1,.878-2.962C5.146,8.8,10.3,7.046,16.447,7.046s11.3,1.755,13.714,4.718A3.342,3.342,0,0,1,31.038,14.725ZM16.447,13.08c-2.414,0-4.5,1.755-4.5,3.84s1.975,3.84,4.5,3.84c2.414,0,4.5-1.755,4.5-3.84S18.86,13.08,16.447,13.08Zm0,6.034c-1.536,0-2.853-.987-2.853-2.194s1.207-2.194,2.853-2.194c1.536,0,2.853.987,2.853,2.194S17.983,19.114,16.447,19.114Z" transform="translate(-0.103 -5.4)" fill="#fff"/>
</svg>
