<svg xmlns="http://www.w3.org/2000/svg" width="56" height="94" viewBox="0 0 56 94">
  <g id="time-icno" transform="translate(-165 -744)">
    <g id="clock_time" transform="translate(168 743)">
      <g id="Сгруппировать_1" data-name="Сгруппировать 1">
        <path id="Контур_7" data-name="Контур 7" d="M16,31A15,15,0,0,1,4.727,6.1a.5.5,0,0,1,.752.661A13.964,13.964,0,1,0,8.9,3.933a.5.5,0,0,1-.507-.862A15,15,0,1,1,16,31Z" fill="#64485c"/>
      </g>
      <g id="Сгруппировать_2" data-name="Сгруппировать 2">
        <path id="Контур_8" data-name="Контур 8" d="M16,28.5A12.5,12.5,0,1,1,28.5,16,12.514,12.514,0,0,1,16,28.5Zm0-24A11.5,11.5,0,1,0,27.5,16,11.513,11.513,0,0,0,16,4.5Z" fill="#64485c"/>
      </g>
      <g id="Сгруппировать_21" data-name="Сгруппировать 21">
        <g id="Сгруппировать_5" data-name="Сгруппировать 5">
          <g id="Сгруппировать_3" data-name="Сгруппировать 3">
            <path id="Контур_9" data-name="Контур 9" d="M20.75,8.27a.493.493,0,0,1-.5-.5.472.472,0,0,1,.149-.35.5.5,0,0,1,.7,0,.5.5,0,0,1-.349.85Z" fill="#64485c"/>
          </g>
          <g id="Сгруппировать_4" data-name="Сгруппировать 4">
            <path id="Контур_10" data-name="Контур 10" d="M11.25,24.729a.517.517,0,0,1-.351-.149.5.5,0,0,1-.149-.351.538.538,0,0,1,.14-.359.532.532,0,0,1,.71,0,.5.5,0,0,1,.15.359.538.538,0,0,1-.141.351A.548.548,0,0,1,11.25,24.729Z" fill="#64485c"/>
          </g>
        </g>
        <g id="Сгруппировать_8" data-name="Сгруппировать 8">
          <g id="Сгруппировать_6" data-name="Сгруппировать 6">
            <path id="Контур_11" data-name="Контур 11" d="M24.229,11.75a.5.5,0,0,1-.35-.141.5.5,0,1,1,.7-.71.513.513,0,0,1,.149.351.511.511,0,0,1-.5.5Z" fill="#64485c"/>
          </g>
          <g id="Сгруппировать_7" data-name="Сгруппировать 7">
            <path id="Контур_12" data-name="Контур 12" d="M7.77,21.25a.514.514,0,0,1-.35-.141.535.535,0,0,1-.15-.359.5.5,0,0,1,.861-.351.509.509,0,0,1,0,.7A.5.5,0,0,1,7.77,21.25Z" fill="#64485c"/>
          </g>
        </g>
        <g id="Сгруппировать_11" data-name="Сгруппировать 11">
          <g id="Сгруппировать_9" data-name="Сгруппировать 9">
            <path id="Контур_13" data-name="Контур 13" d="M25.5,16.5a.5.5,0,0,1-.351-.851A.5.5,0,0,1,26,16a.5.5,0,0,1-.141.35A.5.5,0,0,1,25.5,16.5Z" fill="#64485c"/>
          </g>
          <g id="Сгруппировать_10" data-name="Сгруппировать 10">
            <path id="Контур_14" data-name="Контур 14" d="M6.5,16.5a.5.5,0,0,1-.351-.851A.5.5,0,0,1,7,16a.5.5,0,0,1-.141.35A.5.5,0,0,1,6.5,16.5Z" fill="#64485c"/>
          </g>
        </g>
        <g id="Сгруппировать_14" data-name="Сгруппировать 14">
          <g id="Сгруппировать_12" data-name="Сгруппировать 12">
            <path id="Контур_15" data-name="Контур 15" d="M24.229,21.25a.534.534,0,0,1-.359-.141.541.541,0,0,1-.141-.359.5.5,0,0,1,.851-.351.513.513,0,0,1,.149.351.511.511,0,0,1-.5.5Z" fill="#64485c"/>
          </g>
          <g id="Сгруппировать_13" data-name="Сгруппировать 13">
            <path id="Контур_16" data-name="Контур 16" d="M7.77,11.75a.514.514,0,0,1-.35-.141.535.535,0,0,1-.15-.359.5.5,0,0,1,.861-.351.509.509,0,0,1,0,.7A.513.513,0,0,1,7.77,11.75Z" fill="#64485c"/>
          </g>
        </g>
        <g id="Сгруппировать_17" data-name="Сгруппировать 17">
          <g id="Сгруппировать_15" data-name="Сгруппировать 15">
            <path id="Контур_17" data-name="Контур 17" d="M20.75,24.729a.5.5,0,0,1-.351-.14.524.524,0,0,1-.149-.36.538.538,0,0,1,.14-.359.522.522,0,0,1,.71,0,.5.5,0,0,1,.15.359.538.538,0,0,1-.141.351A.5.5,0,0,1,20.75,24.729Z" fill="#64485c"/>
          </g>
          <g id="Сгруппировать_16" data-name="Сгруппировать 16">
            <path id="Контур_18" data-name="Контур 18" d="M11.25,8.27a.5.5,0,0,1-.351-.85.511.511,0,0,1,.7-.01.5.5,0,0,1,.15.359.47.47,0,0,1-.149.351A.485.485,0,0,1,11.25,8.27Z" fill="#64485c"/>
          </g>
        </g>
        <g id="Сгруппировать_20" data-name="Сгруппировать 20">
          <g id="Сгруппировать_18" data-name="Сгруппировать 18">
            <path id="Контур_19" data-name="Контур 19" d="M16,26a.518.518,0,0,1-.351-.141A.524.524,0,0,1,15.5,25.5a.5.5,0,0,1,.85-.351A.5.5,0,0,1,16,26Z" fill="#64485c"/>
          </g>
          <g id="Сгруппировать_19" data-name="Сгруппировать 19">
            <path id="Контур_20" data-name="Контур 20" d="M16,7a.518.518,0,0,1-.351-.141A.507.507,0,0,1,15.5,6.5a.485.485,0,0,1,.14-.351.506.506,0,0,1,.71,0,.473.473,0,0,1,.15.351.5.5,0,0,1-.141.35A.5.5,0,0,1,16,7Z" fill="#64485c"/>
          </g>
        </g>
      </g>
      <g id="Сгруппировать_23" data-name="Сгруппировать 23">
        <g id="Сгруппировать_22" data-name="Сгруппировать 22">
          <path id="Контур_21" data-name="Контур 21" d="M22.364,9.636a.5.5,0,0,0-.707,0l-5.413,5.413a.975.975,0,0,1,.707.707l5.413-5.413A.5.5,0,0,0,22.364,9.636Z" fill="#64485c"/>
          <path id="Контур_22" data-name="Контур 22" d="M15.756,15.049l-6.12-6.12a.5.5,0,0,0-.707.707l6.12,6.12A.975.975,0,0,1,15.756,15.049Z" fill="#64485c"/>
        </g>
        <path id="Контур_23" data-name="Контур 23" d="M16,17.5A1.5,1.5,0,1,1,17.5,16,1.5,1.5,0,0,1,16,17.5Zm0-2a.5.5,0,1,0,.5.5A.5.5,0,0,0,16,15.5Z" fill="#64485c"/>
      </g>
      <g id="Сгруппировать_30" data-name="Сгруппировать 30">
        <g id="Сгруппировать_29" data-name="Сгруппировать 29">
          <g id="Сгруппировать_28" data-name="Сгруппировать 28">
            <g id="Сгруппировать_27" data-name="Сгруппировать 27">
              <g id="Сгруппировать_26" data-name="Сгруппировать 26">
                <g id="Сгруппировать_25" data-name="Сгруппировать 25">
                  <g id="Сгруппировать_24" data-name="Сгруппировать 24">
                    <path id="Контур_24" data-name="Контур 24" d="M7.5,4.5A.5.5,0,0,1,7,5H7a.5.5,0,0,1-.5-.5h0A.5.5,0,0,1,7,4H7a.5.5,0,0,1,.5.5Z" fill="#64485c"/>
                  </g>
                </g>
              </g>
            </g>
          </g>
        </g>
      </g>
    </g>
    <path id="gift" d="M58,16H51.4A8,8,0,0,0,44.48,4H43.21a8,8,0,0,0-6.66,3.56L32,14.39,27.45,7.56A8,8,0,0,0,20.79,4H19.52A8,8,0,0,0,12.6,16H6a2,2,0,0,0-2,2V29a2,2,0,0,0,2,2H8V56a2,2,0,0,0,2,2H54a2,2,0,0,0,2-2V31h2a2,2,0,0,0,2-2V18A2,2,0,0,0,58,16ZM39.88,9.78A4,4,0,0,1,43.21,8h1.27a4,4,0,0,1,4,3.67,3.91,3.91,0,0,1-1,3,4,4,0,0,1-3,1.33H35.74Zm-23.3,4.93a3.91,3.91,0,0,1-1-3,4,4,0,0,1,4-3.67h1.27a4,4,0,0,1,3.33,1.78L28.26,16H19.52a4,4,0,0,1-2.94-1.29ZM8,20H30v7H8Zm4,34V31H30V54Zm40,0H34V31H52Zm4-27H34V20H56Z" transform="translate(161 780)" fill="#64485c"/>
    <path id="Shape" d="M12.678,3.9a3.9,3.9,0,1,1,3.9,3.9,2.862,2.862,0,0,1-1.56-.39L12.678,9.753l2.341,2.341a2.862,2.862,0,0,1,1.56-.39,3.9,3.9,0,1,1-3.9,3.9,2.862,2.862,0,0,1,.39-1.56L10.728,11.7,3.9,18.53H0L13.068,5.461a2.862,2.862,0,0,1-.39-1.56Zm3.9,1.951A1.951,1.951,0,1,0,14.629,3.9a1.956,1.956,0,0,0,1.951,1.951Zm0,11.7A1.951,1.951,0,1,0,14.629,15.6a1.956,1.956,0,0,0,1.951,1.951Zm-5.852-8.29a.488.488,0,1,0,.488.488.461.461,0,0,0-.488-.488ZM0,.975H3.9L9.753,6.827,7.8,8.777,0,.975Z" transform="translate(207.975 775.091) rotate(60)" fill="#440828" fill-rule="evenodd"/>
    <path id="Контур_25" data-name="Контур 25" d="M196.453,789.406a20.163,20.163,0,0,1,2.734-3.687l3.281,1.3-2.094,3.469S195.844,790.781,196.453,789.406Z" fill="#64485c"/>
  </g>
</svg>
