<svg xmlns="http://www.w3.org/2000/svg" width="56" height="54" viewBox="0 0 56 54">
  <path id="toparrow" d="M173,156.365a4.49,4.49,0,0,0-1.33-3.277l-23.4-23.741A4.572,4.572,0,0,0,145,128a4.375,4.375,0,0,0-3.235,1.347l-23.4,23.741A4.355,4.355,0,0,0,117,156.365a4.55,4.55,0,0,0,1.366,3.314l2.66,2.731a4.572,4.572,0,0,0,3.271,1.347,4.375,4.375,0,0,0,3.235-1.347L138.1,151.7v25.635a4.508,4.508,0,0,0,1.366,3.277A4.394,4.394,0,0,0,142.7,182h4.6a4.394,4.394,0,0,0,3.235-1.384,4.508,4.508,0,0,0,1.366-3.277V151.7l10.567,10.705a4.375,4.375,0,0,0,3.235,1.347,4.572,4.572,0,0,0,3.271-1.347l2.7-2.731A4.7,4.7,0,0,0,173,156.365Z" transform="translate(-117 -128)" fill="#63525e" opacity="0.6"/>
</svg>
