<svg xmlns="http://www.w3.org/2000/svg" width="76" height="76" viewBox="0 0 76 76">
  <g id="user-foto" transform="translate(-0.129 0.066)">
    <rect id="User" width="76" height="76" transform="translate(0.129 -0.066)" fill="none"/>
    <path id="Контур_34" data-name="Контур 34" d="M41.54,46.378A35.954,35.954,0,0,1,75.458,71.85a2.683,2.683,0,0,1,.237,1.572c-.38,1.15-1.971.877-2.468-.761C69.883,61.81,61.265,52.508,49.994,49.745,40,47.3,28.817,49.295,21.138,55.93A34.671,34.671,0,0,0,10.557,72.612s-.85,1.646-1.933.766c-1.1-.9.071-2.936.842-4.828,5.056-12.42,16.836-21.92,31.293-22.166q.391-.005.782,0ZM41.478,12A15.853,15.853,0,0,1,56.513,24.5a15.9,15.9,0,0,1-9.138,17.113,15.948,15.948,0,0,1-19.845-7.434c-3.572-7.293-.2-17.215,7.338-20.734A15.515,15.515,0,0,1,41.478,12Zm-.184,2.37A13.411,13.411,0,0,0,28.62,24.7a13.465,13.465,0,0,0,7.685,14.722c7.215,3.054,16.779-1.941,17.974-10.11A13.368,13.368,0,0,0,41.715,14.375q-.211,0-.421,0Z" transform="translate(-3.249 -4.888)" fill="#440828"/>
  </g>
</svg>
